# xmcd
#
# Track frame offsets:
#	150
#	22270
#	45420
#	67283
#	88786
#	110285
#	128712
#	154178
#	158068
#	178807
#	201575
#	221218
#	246161
#
# Disc length: 3684 seconds
#
# Revision: 0
# Processed by: cddbd v1.5.1PL0 Copyright (c) Steve Scherf et al.
# Submitted via: audiograbber 1.80
#
DISCID=c30e620d
DTITLE=Vlado Georgiev - Navika
DYEAR=1900
DGENRE=
TTITLE0=Sama bez ljubavi
TTITLE1=Reci mi da znam
TTITLE2=Bolesni od ljubavi (radio edit)
TTITLE3=Lazni ljudi (real time performance)
TTITLE4=bonus: phone call from Awax
TTITLE5=Sta bi prijatelji moji
TTITLE6=Lazljiva
TTITLE7=bonus: authentic good time in studio Barba
TTITLE8=Zbogom ljubavi
TTITLE9=Navika
TTITLE10=Slobodno je
TTITLE11=Put do srca tvog (bonus track)
TTITLE12=Bolesni od ljubavi (extended version)
EXTD=
EXTT0=
EXTT1=
EXTT2=
EXTT3=
EXTT4=
EXTT5=
EXTT6=
EXTT7=
EXTT8=
EXTT9=
EXTT10=
EXTT11=
EXTT12=
PLAYORDER=
